<?xml version="1.0" encoding="utf-8"?>
<svg viewBox="148.181 197.765 166.295 164.828" xmlns="http://www.w3.org/2000/svg">
  <path fill="#00bf89" opacity="1.000000" stroke="none" d="&#10;M284.935059,329.104279 &#10;&#9;C277.923157,324.514435 272.108276,319.038788 266.165131,313.707520 &#10;&#9;C263.904541,311.679626 263.703033,309.906281 265.382080,307.279480 &#10;&#9;C275.992676,290.679413 290.355896,278.505554 308.226898,270.364532 &#10;&#9;C311.013489,269.095154 312.978455,268.966553 313.215149,272.947327 &#10;&#9;C314.374969,292.456055 310.675903,310.653351 299.152832,326.851624 &#10;&#9;C293.391144,334.950989 293.441101,334.986542 284.935059,329.104279 &#10;z" transform="matrix(0.9999999999999999, 0, 0, 0.9999999999999999, 1.4210854715202004e-14, 2.842170943040401e-14)"/>
  <path fill="#00bf89" opacity="1.000000" stroke="none" d="&#10;M265.969543,297.978241 &#10;&#9;C264.024261,300.673737 262.309845,303.100006 260.773102,305.274780 &#10;&#9;C258.685150,305.695862 257.957520,304.447968 257.225220,303.379791 &#10;&#9;C251.064362,294.393311 246.227158,284.799988 243.665268,274.127014 &#10;&#9;C243.110672,271.816589 243.241730,270.260254 245.833115,269.544006 &#10;&#9;C265.959106,263.981293 284.865601,255.315140 303.807159,246.736786 &#10;&#9;C304.224426,246.547806 304.779083,246.662201 305.505157,246.622055 &#10;&#9;C308.065765,251.058640 309.639679,255.924332 311.129852,260.835114 &#10;&#9;C311.968719,263.599518 310.399689,264.953918 308.247284,265.795990 &#10;&#9;C291.208160,272.462524 277.640411,283.678375 265.969543,297.978241 &#10;z" transform="matrix(0.9999999999999999, 0, 0, 0.9999999999999999, 1.4210854715202004e-14, 2.842170943040401e-14)"/>
  <path fill="#00bf89" opacity="1.000000" stroke="none" d="&#10;M213.518646,313.690674 &#10;&#9;C213.785980,310.702087 215.818787,309.050201 217.227493,307.033295 &#10;&#9;C223.326843,298.300568 229.443542,289.579926 235.577209,280.871246 &#10;&#9;C236.489853,279.575500 237.093994,277.899780 238.967926,277.481964 &#10;&#9;C241.308090,279.301361 241.001846,282.068939 241.833023,284.311249 &#10;&#9;C244.929352,292.664276 249.330460,300.279694 254.662308,307.354645 &#10;&#9;C256.574280,309.891693 257.112793,311.982330 255.361923,314.978271 &#10;&#9;C251.988770,320.750183 250.076492,327.178101 248.304901,333.598022 &#10;&#9;C247.592514,336.179657 246.503372,337.560577 243.521439,337.532990 &#10;&#9;C240.219864,337.502380 236.815125,337.752625 233.633682,338.572601 &#10;&#9;C230.258728,339.442444 228.681976,338.065613 227.397903,335.356964 &#10;&#9;C223.741074,327.643311 218.797150,320.752838 213.518646,313.690674 &#10;z" transform="matrix(0.9999999999999999, 0, 0, 0.9999999999999999, 1.4210854715202004e-14, 2.842170943040401e-14)"/>
  <path fill="#00bf89" opacity="1.000000" stroke="none" d="&#10;M236.083832,252.936829 &#10;&#9;C236.306351,256.745148 236.444672,260.075073 236.761963,263.387848 &#10;&#9;C237.033035,266.218079 235.947113,267.681671 233.100677,268.271667 &#10;&#9;C221.540649,270.667755 209.995544,273.082275 198.276810,274.662476 &#10;&#9;C194.387146,275.186981 193.514252,273.859039 193.769531,270.445007 &#10;&#9;C194.105087,265.957397 194.266098,261.440125 193.253784,257.014587 &#10;&#9;C192.798920,255.026031 193.563965,253.879944 195.080688,252.837814 &#10;&#9;C202.090820,248.021118 208.924225,242.986816 214.537903,236.504150 &#10;&#9;C215.455002,235.445099 216.483063,234.721146 218.005722,235.043076 &#10;&#9;C223.209412,236.143265 228.421432,237.204041 233.625992,238.300217 &#10;&#9;C235.906555,238.780518 236.307175,240.429932 236.240723,242.456833 &#10;&#9;C236.131561,245.786423 236.126328,249.119431 236.083832,252.936829 &#10;z" transform="matrix(0.9999999999999999, 0, 0, 0.9999999999999999, 1.4210854715202004e-14, 2.842170943040401e-14)"/>
  <path fill="#00bf89" opacity="1.000000" stroke="none" d="&#10;M165.754028,328.209198 &#10;&#9;C164.712494,326.189972 165.890961,325.116882 166.795975,323.933594 &#10;&#9;C172.045151,317.070282 177.262970,310.178680 181.577087,302.672089 &#10;&#9;C182.924835,300.327026 184.614746,299.872681 186.977753,300.897766 &#10;&#9;C192.956665,303.491455 198.486496,306.802429 203.591339,310.868378 &#10;&#9;C205.767609,312.601746 205.888290,314.430908 204.300751,316.437073 &#10;&#9;C197.501007,325.030029 190.983597,333.857758 183.242386,341.671234 &#10;&#9;C181.411133,343.519592 179.926941,343.263123 178.147232,341.625641 &#10;&#9;C173.733810,337.564880 169.636185,333.222748 165.754028,328.209198 &#10;z" transform="matrix(0.9999999999999999, 0, 0, 0.9999999999999999, 1.4210854715202004e-14, 2.842170943040401e-14)"/>
  <path fill="#00bf89" opacity="1.000000" stroke="none" d="&#10;M300.011169,236.024689 &#10;&#9;C301.102325,237.854752 302.721619,239.057449 302.407593,241.698044 &#10;&#9;C284.915649,250.341568 267.233337,259.167145 247.194473,263.707428 &#10;&#9;C247.527786,259.068115 250.398285,256.223511 251.532074,252.724533 &#10;&#9;C254.765991,242.744385 260.264313,236.014755 271.875397,235.313782 &#10;&#9;C276.804291,235.016220 281.624695,232.232834 286.238647,229.889908 &#10;&#9;C293.067047,226.422470 293.102539,226.478638 297.527466,232.464798 &#10;&#9;C298.316681,233.532501 299.044250,234.645798 300.011169,236.024689 &#10;z" transform="matrix(0.9999999999999999, 0, 0, 0.9999999999999999, 1.4210854715202004e-14, 2.842170943040401e-14)"/>
  <path fill="#00bf89" opacity="1.000000" stroke="none" d="&#10;M229.870361,280.779968 &#10;&#9;C223.800003,289.366119 217.863815,297.601166 212.119827,305.968140 &#10;&#9;C210.194458,308.772736 208.575729,309.445312 205.811142,306.956909 &#10;&#9;C201.077820,302.696381 195.430756,299.766113 189.845444,296.787170 &#10;&#9;C188.557953,296.100525 186.542709,295.672455 187.071365,293.813751 &#10;&#9;C188.022110,290.471222 189.616867,287.316193 190.654205,283.992859 &#10;&#9;C192.061798,279.483307 195.844910,280.195679 199.211243,279.595093 &#10;&#9;C208.542648,277.930389 217.837906,276.063507 227.149704,274.288330 &#10;&#9;C229.027054,273.930450 230.918655,272.825531 232.908615,274.298218 &#10;&#9;C233.077713,276.893219 231.083771,278.469147 229.870361,280.779968 &#10;z" transform="matrix(0.9999999999999999, 0, 0, 0.9999999999999999, 1.4210854715202004e-14, 2.842170943040401e-14)"/>
  <path fill="#00bf89" opacity="1.000000" stroke="none" d="&#10;M186.387680,347.699036 &#10;&#9;C186.336334,345.162201 187.946533,343.795837 189.262634,342.376007 &#10;&#9;C195.380188,335.776428 200.721405,328.555939 206.236816,321.473297 &#10;&#9;C209.642303,317.100098 210.323563,317.071259 213.446365,321.391510 &#10;&#9;C216.956207,326.247223 220.154312,331.294189 222.898560,336.635590 &#10;&#9;C224.319077,339.400513 224.248245,341.304474 220.871475,342.324158 &#10;&#9;C214.172729,344.346924 208.747696,348.513062 203.746277,353.172729 &#10;&#9;C201.231552,355.515564 199.209686,355.769684 196.316940,353.882233 &#10;&#9;C193.143570,351.811768 189.332870,350.764435 186.387680,347.699036 &#10;z" transform="matrix(0.9999999999999999, 0, 0, 0.9999999999999999, 1.4210854715202004e-14, 2.842170943040401e-14)"/>
  <path fill="#00bf89" opacity="1.000000" stroke="none" d="&#10;M222.298096,217.152649 &#10;&#9;C213.653778,231.702957 215.588425,229.644333 203.047028,222.566360 &#10;&#9;C198.444702,219.968964 192.597717,216.237015 193.039688,211.106812 &#10;&#9;C193.433411,206.536560 200.432632,205.834610 204.811768,204.345016 &#10;&#9;C212.125565,201.857162 219.546936,199.252991 228.358459,199.816467 &#10;&#9;C227.420654,206.177414 225.261734,211.596161 222.298096,217.152649 &#10;z" transform="matrix(0.9999999999999999, 0, 0, 0.9999999999999999, 1.4210854715202004e-14, 2.842170943040401e-14)"/>
  <path fill="#00bf89" opacity="1.000000" stroke="none" d="&#10;M197.447174,245.585022 &#10;&#9;C193.395432,249.233261 191.109146,248.227112 189.030258,243.741837 &#10;&#9;C186.221848,237.682617 182.026962,232.438812 177.299988,227.743530 &#10;&#9;C174.240005,224.704086 174.592957,222.436493 177.946671,220.182388 &#10;&#9;C178.083557,220.090393 178.199951,219.967896 178.325714,219.859390 &#10;&#9;C186.278168,213.000305 186.278259,213.000198 193.243378,220.481812 &#10;&#9;C197.267014,224.803802 202.282120,227.781708 207.381012,230.555832 &#10;&#9;C210.500397,232.252945 210.719238,233.984299 208.239304,236.213928 &#10;&#9;C204.787842,239.317001 201.241287,242.314301 197.447174,245.585022 &#10;z" transform="matrix(0.9999999999999999, 0, 0, 0.9999999999999999, 1.4210854715202004e-14, 2.842170943040401e-14)"/>
  <path fill="#00bf89" opacity="1.000000" stroke="none" d="&#10;M175.153076,256.371216 &#10;&#9;C168.320557,258.797882 161.679932,259.357178 154.248367,259.509613 &#10;&#9;C155.680603,252.153519 158.537811,246.388245 161.642395,240.768814 &#10;&#9;C163.485641,237.432480 165.782394,234.344727 167.906403,231.166031 &#10;&#9;C169.904541,228.175705 172.057251,228.326385 174.355804,230.869858 &#10;&#9;C178.949768,235.953308 183.019287,241.380493 185.995117,247.603134 &#10;&#9;C187.150360,250.018738 186.991531,251.704056 184.313950,252.751862 &#10;&#9;C181.380112,253.899979 178.463715,255.092667 175.153076,256.371216 &#10;z" transform="matrix(0.9999999999999999, 0, 0, 0.9999999999999999, 1.4210854715202004e-14, 2.842170943040401e-14)"/>
  <path fill="#00bf89" opacity="1.000000" stroke="none" d="&#10;M253.547089,337.936462 &#10;&#9;C252.771545,330.084106 256.922607,323.880890 259.822601,317.342316 &#10;&#9;C260.614105,315.557678 262.520752,316.827820 263.568298,317.925720 &#10;&#9;C270.287262,324.967834 278.455811,330.148010 286.356171,335.656616 &#10;&#9;C289.046356,337.532440 289.037384,339.152039 286.687164,341.116852 &#10;&#9;C284.647583,342.822083 282.501587,344.413788 280.578247,346.240570 &#10;&#9;C278.438629,348.272797 276.452789,348.427246 273.896515,346.879639 &#10;&#9;C267.618103,343.078522 260.909027,340.184998 253.547089,337.936462 &#10;z" transform="matrix(0.9999999999999999, 0, 0, 0.9999999999999999, 1.4210854715202004e-14, 2.842170943040401e-14)"/>
  <path fill="#00bf89" opacity="1.000000" stroke="none" d="&#10;M159.469391,264.288483 &#10;&#9;C168.170410,263.239777 176.221115,261.357025 183.896790,258.088959 &#10;&#9;C187.449554,256.576263 189.328522,257.257751 189.149017,261.417389 &#10;&#9;C189.141876,261.582855 189.150726,261.749207 189.156891,261.915009 &#10;&#9;C189.662537,275.500977 189.238586,276.018494 175.908035,277.160828 &#10;&#9;C168.978088,277.754700 162.026413,278.116364 155.108246,278.816956 &#10;&#9;C151.618607,279.170319 150.381577,277.631165 150.929489,274.545288 &#10;&#9;C152.613983,265.058167 150.986847,265.219788 159.469391,264.288483 &#10;z" transform="matrix(0.9999999999999999, 0, 0, 0.9999999999999999, 1.4210854715202004e-14, 2.842170943040401e-14)"/>
  <path fill="#00bf89" opacity="1.000000" stroke="none" d="&#10;M258.736725,224.586136 &#10;&#9;C254.956406,234.564453 254.553482,234.790466 246.656433,234.261246 &#10;&#9;C243.696030,234.062836 242.298187,232.869919 242.771881,229.921448 &#10;&#9;C244.166931,221.238190 245.787674,212.603867 248.607635,204.240051 &#10;&#9;C249.181732,202.537354 250.230225,201.728699 251.980209,202.201202 &#10;&#9;C255.181595,203.065613 258.377869,203.961548 261.534912,204.973434 &#10;&#9;C263.824036,205.707123 263.863098,207.541580 263.302704,209.454132 &#10;&#9;C261.857635,214.385910 260.363373,219.303299 258.736725,224.586136 &#10;z" transform="matrix(0.9999999999999999, 0, 0, 0.9999999999999999, 1.4210854715202004e-14, 2.842170943040401e-14)"/>
  <path fill="#00bf89" opacity="1.000000" stroke="none" d="&#10;M228.789978,214.783325 &#10;&#9;C230.661148,210.641678 231.961090,206.735168 232.927475,202.657364 &#10;&#9;C234.132217,197.573914 238.280823,199.944244 241.184204,200.180634 &#10;&#9;C244.488358,200.449677 243.613937,203.119598 243.016022,205.197723 &#10;&#9;C240.806198,212.878433 239.229141,220.694122 238.143326,228.599121 &#10;&#9;C237.613480,232.456558 236.115509,234.126190 231.894531,233.347305 &#10;&#9;C218.139923,230.809189 218.983261,231.495087 225.369278,221.297836 &#10;&#9;C226.601593,219.330078 227.567703,217.195602 228.789978,214.783325 &#10;z" transform="matrix(0.9999999999999999, 0, 0, 0.9999999999999999, 1.4210854715202004e-14, 2.842170943040401e-14)"/>
  <path fill="#00bf89" opacity="1.000000" stroke="none" d="&#10;M154.698578,306.114990 &#10;&#9;C154.174591,304.297150 153.796158,302.844910 153.320831,301.425110 &#10;&#9;C152.468552,298.879303 153.638275,297.534821 156.005081,297.178192 &#10;&#9;C162.303375,296.229034 168.617828,296.380157 174.905350,297.320892 &#10;&#9;C177.247757,297.671326 178.160049,299.037323 176.862732,301.208099 &#10;&#9;C172.683365,308.201294 167.728302,314.618011 162.143188,321.446869 &#10;&#9;C157.937378,316.829315 157.133759,311.261169 154.698578,306.114990 &#10;z" transform="matrix(0.9999999999999999, 0, 0, 0.9999999999999999, 1.4210854715202004e-14, 2.842170943040401e-14)"/>
  <path fill="#00bf89" opacity="1.000000" stroke="none" d="&#10;M275.700317,212.216324 &#10;&#9;C280.165802,215.596130 284.744537,218.302429 288.621368,223.042938 &#10;&#9;C280.289612,228.415482 271.704132,231.099258 262.679199,232.526520 &#10;&#9;C261.075348,229.681015 262.754578,227.856979 263.365326,225.912674 &#10;&#9;C264.509979,222.268814 265.848511,218.685913 266.994446,215.042450 &#10;&#9;C269.196808,208.040146 269.164398,208.029953 275.700317,212.216324 &#10;z" transform="matrix(0.9999999999999999, 0, 0, 0.9999999999999999, 1.4210854715202004e-14, 2.842170943040401e-14)"/>
  <path fill="#00bf89" opacity="1.000000" stroke="none" d="&#10;M184.494217,286.545197 &#10;&#9;C182.899948,292.683563 179.721359,294.237305 173.737320,292.586761 &#10;&#9;C168.358810,291.103271 162.552444,291.583374 156.921997,292.206787 &#10;&#9;C153.481308,292.587769 151.005615,291.785065 150.912430,287.641388 &#10;&#9;C150.821030,283.577637 153.640503,283.887756 156.349045,283.685669 &#10;&#9;C164.288803,283.093201 172.217316,282.349396 180.157516,281.763702 &#10;&#9;C181.764435,281.645172 183.456528,281.209717 185.048828,282.041718 &#10;&#9;C186.127518,283.565277 185.210953,284.878906 184.494217,286.545197 &#10;z" transform="matrix(0.9999999999999999, 0, 0, 0.9999999999999999, 1.4210854715202004e-14, 2.842170943040401e-14)"/>
  <path fill="#00bf89" opacity="1.000000" stroke="none" d="&#10;M211.273926,353.220001 &#10;&#9;C215.078842,350.784607 218.517899,348.468292 222.333908,346.742950 &#10;&#9;C225.007339,345.534271 226.870926,345.744598 227.618195,348.844757 &#10;&#9;C228.613953,352.975830 232.325424,357.802551 230.037354,361.012451 &#10;&#9;C227.612152,364.414734 222.307175,361.198975 218.308701,360.785004 &#10;&#9;C214.609863,360.402069 210.634567,360.422028 207.439758,357.848145 &#10;&#9;C207.360397,355.274597 209.419952,354.550507 211.273926,353.220001 &#10;z" transform="matrix(0.9999999999999999, 0, 0, 0.9999999999999999, 1.4210854715202004e-14, 2.842170943040401e-14)"/>
  <path fill="#00bf89" opacity="1.000000" stroke="none" d="&#10;M237.790985,342.692688 &#10;&#9;C246.039169,341.508759 245.983688,341.504944 245.437927,349.427155 &#10;&#9;C245.279419,351.728119 245.352203,354.082306 245.654373,356.367737 &#10;&#9;C245.990616,358.911102 246.099655,361.119598 242.871536,361.632965 &#10;&#9;C239.884460,362.108002 236.781113,362.828613 235.615738,358.681305 &#10;&#9;C234.540619,354.855164 233.286392,351.077881 232.270706,347.236877 &#10;&#9;C231.021133,342.511353 234.804291,343.263947 237.790985,342.692688 &#10;z" transform="matrix(0.9999999999999999, 0, 0, 0.9999999999999999, 1.4210854715202004e-14, 2.842170943040401e-14)"/>
  <path fill="#00bf89" opacity="1.000000" stroke="none" d="&#10;M250.580750,355.334473 &#10;&#9;C250.613495,352.776001 250.611313,350.624481 250.698639,348.476593 &#10;&#9;C250.934097,342.685852 251.466995,342.155701 256.759186,343.949432 &#10;&#9;C261.708252,345.626892 266.617889,347.548737 271.388580,351.502533 &#10;&#9;C265.562103,355.863464 259.282410,357.738220 253.099075,359.542267 &#10;&#9;C250.578705,360.277618 250.710770,357.525299 250.580750,355.334473 &#10;z" transform="matrix(0.9999999999999999, 0, 0, 0.9999999999999999, 1.4210854715202004e-14, 2.842170943040401e-14)"/>
  <path fill="#00bf89" opacity="1.000000" stroke="none" d="&#10;M241.742355,258.410400 &#10;&#9;C240.253128,253.148483 240.866608,248.030670 240.965149,242.931030 &#10;&#9;C241.003708,240.935608 241.710907,239.244919 243.983627,239.086121 &#10;&#9;C246.406281,238.916870 249.204926,237.944641 251.119705,239.828354 &#10;&#9;C252.649948,241.333740 251.073792,243.291626 250.223541,244.804977 &#10;&#9;C247.607101,249.461960 246.480301,255.007965 241.742355,258.410400 &#10;z" transform="matrix(0.9999999999999999, 0, 0, 0.9999999999999999, 1.4210854715202004e-14, 2.842170943040401e-14)"/>
</svg>