<?xml version="1.0" encoding="utf-8"?>
<svg viewBox="148.493 197.765 722.964 168.995" xmlns="http://www.w3.org/2000/svg">
  <path fill="#000000" opacity="1.000000" stroke="none" d="&#10;M350.767548,297.999939 &#10;&#9;C350.766968,280.359100 350.892639,263.216736 350.684937,246.078369 &#10;&#9;C350.626556,241.259735 352.360077,239.579437 357.089172,239.801117 &#10;&#9;C369.374329,240.377075 381.740051,238.772812 393.967834,240.717865 &#10;&#9;C411.520782,243.509964 421.562225,257.736877 417.815582,274.077545 &#10;&#9;C415.098572,285.927551 404.337799,294.562988 391.262360,295.200165 &#10;&#9;C386.446259,295.434906 381.610321,295.422028 376.788025,295.315308 &#10;&#9;C373.609406,295.244995 372.235382,296.504303 372.288849,299.712891 &#10;&#9;C372.380280,305.202667 372.151581,310.699341 372.308655,316.185913 &#10;&#9;C372.410278,319.736206 371.219543,321.450623 367.449249,321.275665 &#10;&#9;C363.297546,321.082977 359.129913,321.169952 354.970520,321.228027 &#10;&#9;C352.014008,321.269348 350.759766,319.869995 350.780518,316.971802 &#10;&#9;C350.824646,310.814880 350.777405,304.657257 350.767548,297.999939 &#10;M396.648926,268.385529 &#10;&#9;C395.808167,261.156982 393.545563,258.663574 386.553375,257.659332 &#10;&#9;C384.263733,257.330475 381.908386,257.400330 379.582733,257.392303 &#10;&#9;C372.369568,257.367432 372.238861,257.388763 372.340454,264.486481 &#10;&#9;C372.565674,280.225983 369.646759,277.537140 385.736603,277.757599 &#10;&#9;C392.346771,277.848145 394.788757,275.729858 396.648926,268.385529 &#10;z" transform="matrix(1, 0, 0, 1, 7.105427357601002e-15, 0)"/>
  <path fill="#000000" opacity="1.000000" stroke="none" d="&#10;M552.742676,297.434692 &#10;&#9;C546.201843,294.819794 539.773804,292.754852 536.123413,286.459656 &#10;&#9;C532.164612,279.632599 533.462708,272.186218 539.566284,267.228912 &#10;&#9;C550.216248,258.579071 572.522827,258.426117 583.333435,267.006012 &#10;&#9;C584.745667,268.126862 586.073486,269.502258 587.029968,271.018646 &#10;&#9;C589.091064,274.286377 591.227112,278.077545 589.368347,281.736755 &#10;&#9;C587.789001,284.845886 583.905884,282.902100 581.064941,283.230927 &#10;&#9;C578.930725,283.477966 576.736023,283.148376 574.579285,283.270874 &#10;&#9;C572.291199,283.400879 571.028137,282.557831 569.981750,280.404663 &#10;&#9;C567.367188,275.024597 560.838684,273.916595 555.842041,277.824585 &#10;&#9;C556.656738,280.095154 558.920715,280.106079 560.674866,280.769592 &#10;&#9;C566.427734,282.945618 572.260925,284.911041 577.999756,287.122040 &#10;&#9;C581.450012,288.451324 584.485901,290.506653 586.926880,293.351501 &#10;&#9;C592.825867,300.226593 592.173462,308.610504 585.305115,314.548401 &#10;&#9;C580.129822,319.022644 573.777771,320.574524 567.295166,321.080994 &#10;&#9;C558.563965,321.763123 550.039124,320.413208 542.121094,316.313660 &#10;&#9;C536.391479,313.347076 533.688538,308.641785 533.531372,302.204803 &#10;&#9;C533.465088,299.489594 534.205750,298.079102 537.053833,298.101440 &#10;&#9;C541.049255,298.132782 545.045105,298.102448 549.040771,298.098724 &#10;&#9;C550.928650,298.096985 551.859253,299.039032 552.710388,300.787872 &#10;&#9;C555.326599,306.163452 563.255554,307.609619 568.665710,303.512573 &#10;&#9;C564.216064,299.294464 558.155029,299.659363 552.742676,297.434692 &#10;z" transform="matrix(1, 0, 0, 1, 7.105427357601002e-15, 0)"/>
  <path fill="#000000" opacity="1.000000" stroke="none" d="&#10;M825.284180,264.058319 &#10;&#9;C840.985840,257.411407 857.251831,262.443481 865.601440,276.251617 &#10;&#9;C866.987854,278.544495 868.031372,280.976501 868.717468,283.570465 &#10;&#9;C871.731445,294.965912 869.928345,297.384338 858.391541,297.383606 &#10;&#9;C848.282654,297.382935 838.173767,297.383453 827.771606,297.383453 &#10;&#9;C831.101379,303.729095 838.355164,306.292969 844.482178,302.902557 &#10;&#9;C851.790344,298.858582 859.309631,301.515045 866.791870,300.414886 &#10;&#9;C865.772217,310.119507 853.237000,320.217865 839.415161,321.036011 &#10;&#9;C827.482361,321.742310 813.348755,314.851471 808.750427,299.466003 &#10;&#9;C804.446838,285.066711 810.549805,271.834930 825.284180,264.058319 &#10;M843.791565,278.496399 &#10;&#9;C836.521790,276.019379 831.226685,277.824951 827.801575,284.104675 &#10;&#9;C835.000916,284.104675 842.087097,284.104675 849.368347,284.104675 &#10;&#9;C848.631226,280.956451 846.358826,280.092010 843.791565,278.496399 &#10;z" transform="matrix(1, 0, 0, 1, 7.105427357601002e-15, 0)"/>
  <path fill="#000000" opacity="1.000000" stroke="none" d="&#10;M515.775635,312.836304 &#10;&#9;C501.279022,324.109955 485.866272,323.172974 474.640442,313.961578 &#10;&#9;C463.013519,304.421021 460.427368,288.021637 468.146484,275.609558 &#10;&#9;C476.121643,262.785736 492.544312,257.530334 506.632568,263.405090 &#10;&#9;C518.736084,268.452209 525.015320,277.762787 526.041443,290.696564 &#10;&#9;C526.470947,296.110779 525.199829,297.347656 519.567688,297.362518 &#10;&#9;C509.409851,297.389374 499.251862,297.345490 489.094116,297.383850 &#10;&#9;C487.496857,297.389893 485.783051,296.877747 484.307739,298.009155 &#10;&#9;C487.506836,303.818512 494.134491,306.345215 500.350708,303.013458 &#10;&#9;C507.734924,299.055664 515.253357,301.390625 523.297974,300.516174 &#10;&#9;C522.621521,306.153778 519.122742,309.253845 515.775635,312.836304 &#10;M505.093475,282.083130 &#10;&#9;C496.982574,275.122101 487.705078,276.007172 484.080383,284.586426 &#10;&#9;C491.031586,284.586426 497.775269,284.614105 504.518341,284.563232 &#10;&#9;C505.881409,284.552948 506.159637,283.712067 505.093475,282.083130 &#10;z" transform="matrix(1, 0, 0, 1, 7.105427357601002e-15, 0)"/>
  <path fill="#000000" opacity="1.000000" stroke="none" d="&#10;M613.974365,317.251343 &#10;&#9;C600.629822,309.267120 594.846252,294.638153 599.624329,281.617493 &#10;&#9;C604.535767,268.233459 619.629944,258.886261 632.751099,261.103546 &#10;&#9;C648.745728,263.806427 660.142395,276.056915 660.285522,290.700958 &#10;&#9;C660.343689,296.649109 659.706543,297.341797 653.856018,297.359192 &#10;&#9;C643.859192,297.388947 633.862061,297.352631 623.865417,297.399445 &#10;&#9;C622.254700,297.406982 620.542236,296.913727 619.039429,297.966675 &#10;&#9;C621.222717,303.988861 628.639282,306.204132 635.646301,302.611816 &#10;&#9;C642.792664,298.948120 650.138550,301.289612 657.543091,300.633331 &#10;&#9;C654.633179,316.891510 631.909729,325.374634 613.974365,317.251343 &#10;M628.532776,284.664917 &#10;&#9;C632.366638,284.365845 636.311707,285.306793 640.458923,283.816589 &#10;&#9;C637.129639,279.080933 633.018494,276.638977 627.628174,277.505463 &#10;&#9;C623.833069,278.115540 620.188477,279.535980 618.290955,283.886017 &#10;&#9;C621.679138,285.213013 624.670166,284.462646 628.532776,284.664917 &#10;z" transform="matrix(1, 0, 0, 1, 7.105427357601002e-15, 0)"/>
  <path fill="#000000" opacity="1.000000" stroke="none" d="&#10;M730.413818,294.035156 &#10;&#9;C730.394043,301.852142 730.273254,309.176605 730.399292,316.496857 &#10;&#9;C730.457153,319.856873 729.284607,321.332031 725.789307,321.286743 &#10;&#9;C710.692322,321.091187 713.026855,322.856506 712.821655,308.748444 &#10;&#9;C712.737000,302.924530 712.863220,297.096802 712.731628,291.274475 &#10;&#9;C712.545166,283.023346 706.815674,277.241333 698.992432,277.226318 &#10;&#9;C691.087097,277.211151 685.375122,282.928009 685.265137,291.164276 &#10;&#9;C685.158508,299.151489 685.044067,307.146179 685.279297,315.127350 &#10;&#9;C685.408325,319.505463 684.200378,321.444000 679.408142,321.315613 &#10;&#9;C665.840881,320.952118 667.787781,322.739319 667.682251,309.603546 &#10;&#9;C667.565979,295.125488 667.800781,280.644287 667.643066,266.167084 &#10;&#9;C667.598389,262.067963 668.987488,260.260864 673.115784,260.688232 &#10;&#9;C677.328247,261.124268 681.676941,259.746368 685.792664,262.178833 &#10;&#9;C686.839539,262.797546 688.949097,261.706116 690.543640,261.296661 &#10;&#9;C706.196167,257.277435 723.108154,265.918762 728.859619,280.759094 &#10;&#9;C730.479065,284.937500 730.404053,289.220032 730.413818,294.035156 &#10;z" transform="matrix(1, 0, 0, 1, 7.105427357601002e-15, 0)"/>
  <path fill="#000000" opacity="1.000000" stroke="none" d="&#10;M784.554321,264.212463 &#10;&#9;C793.956360,269.940613 799.579041,278.110260 799.398865,285.927612 &#10;&#9;C794.366943,286.784119 789.235413,286.347198 784.131409,286.237579 &#10;&#9;C782.171204,286.195496 781.600708,284.332336 780.620117,283.021027 &#10;&#9;C775.918579,276.734009 767.104370,275.233002 761.091614,279.655792 &#10;&#9;C754.933594,284.185394 753.671814,292.137573 758.069824,298.699799 &#10;&#9;C763.301147,306.505402 775.883057,305.983856 780.685242,297.316284 &#10;&#9;C782.748840,293.591675 785.058411,292.319794 788.928101,292.751129 &#10;&#9;C790.243164,292.897736 791.588623,292.770599 792.920227,292.769073 &#10;&#9;C800.728455,292.760162 801.430786,293.783905 798.574646,301.010559 &#10;&#9;C793.286316,314.391113 777.895752,323.243561 764.452148,320.637390 &#10;&#9;C748.403748,317.526276 737.672668,305.142426 737.745728,289.817902 &#10;&#9;C737.836243,270.839630 757.786316,256.208282 776.742065,261.288055 &#10;&#9;C779.298462,261.973114 781.735657,263.102631 784.554321,264.212463 &#10;z" transform="matrix(1, 0, 0, 1, 7.105427357601002e-15, 0)"/>
  <path fill="#00bf89" opacity="1.000000" stroke="none" d="&#10;M284.935059,329.104279 &#10;&#9;C277.923157,324.514435 272.108276,319.038788 266.165131,313.707520 &#10;&#9;C263.904541,311.679626 263.703033,309.906281 265.382080,307.279480 &#10;&#9;C275.992676,290.679413 290.355896,278.505554 308.226898,270.364532 &#10;&#9;C311.013489,269.095154 312.978455,268.966553 313.215149,272.947327 &#10;&#9;C314.374969,292.456055 310.675903,310.653351 299.152832,326.851624 &#10;&#9;C293.391144,334.950989 293.441101,334.986542 284.935059,329.104279 &#10;z" transform="matrix(1, 0, 0, 1, 7.105427357601002e-15, 0)"/>
  <path fill="#00bf89" opacity="1.000000" stroke="none" d="&#10;M265.969543,297.978241 &#10;&#9;C264.024261,300.673737 262.309845,303.100006 260.773102,305.274780 &#10;&#9;C258.685150,305.695862 257.957520,304.447968 257.225220,303.379791 &#10;&#9;C251.064362,294.393311 246.227158,284.799988 243.665268,274.127014 &#10;&#9;C243.110672,271.816589 243.241730,270.260254 245.833115,269.544006 &#10;&#9;C265.959106,263.981293 284.865601,255.315140 303.807159,246.736786 &#10;&#9;C304.224426,246.547806 304.779083,246.662201 305.505157,246.622055 &#10;&#9;C308.065765,251.058640 309.639679,255.924332 311.129852,260.835114 &#10;&#9;C311.968719,263.599518 310.399689,264.953918 308.247284,265.795990 &#10;&#9;C291.208160,272.462524 277.640411,283.678375 265.969543,297.978241 &#10;z" transform="matrix(1, 0, 0, 1, 7.105427357601002e-15, 0)"/>
  <path fill="#00bf89" opacity="1.000000" stroke="none" d="&#10;M213.518646,313.690674 &#10;&#9;C213.785980,310.702087 215.818787,309.050201 217.227493,307.033295 &#10;&#9;C223.326843,298.300568 229.443542,289.579926 235.577209,280.871246 &#10;&#9;C236.489853,279.575500 237.093994,277.899780 238.967926,277.481964 &#10;&#9;C241.308090,279.301361 241.001846,282.068939 241.833023,284.311249 &#10;&#9;C244.929352,292.664276 249.330460,300.279694 254.662308,307.354645 &#10;&#9;C256.574280,309.891693 257.112793,311.982330 255.361923,314.978271 &#10;&#9;C251.988770,320.750183 250.076492,327.178101 248.304901,333.598022 &#10;&#9;C247.592514,336.179657 246.503372,337.560577 243.521439,337.532990 &#10;&#9;C240.219864,337.502380 236.815125,337.752625 233.633682,338.572601 &#10;&#9;C230.258728,339.442444 228.681976,338.065613 227.397903,335.356964 &#10;&#9;C223.741074,327.643311 218.797150,320.752838 213.518646,313.690674 &#10;z" transform="matrix(1, 0, 0, 1, 7.105427357601002e-15, 0)"/>
  <path fill="#000000" opacity="1.000000" stroke="none" d="&#10;M460.580841,275.758301 &#10;&#9;C458.719482,276.119843 457.225311,276.195190 455.746460,276.387756 &#10;&#9;C448.339874,277.352356 443.426514,282.727203 443.306549,290.194153 &#10;&#9;C443.170288,298.672852 443.039032,307.156860 443.200928,315.632935 &#10;&#9;C443.284546,320.010101 441.536163,321.411377 437.269928,321.309235 &#10;&#9;C424.176941,320.995850 425.801575,322.612274 425.717377,309.885437 &#10;&#9;C425.621643,295.419556 425.822479,280.950623 425.603699,266.487366 &#10;&#9;C425.538086,262.148773 426.914581,260.421814 431.306885,260.746552 &#10;&#9;C439.693268,261.366547 448.064850,261.046936 456.382263,259.667023 &#10;&#9;C460.805878,258.933136 462.521637,261.041260 462.092529,265.291901 &#10;&#9;C461.747803,268.707245 462.915558,272.290222 460.580841,275.758301 &#10;z" transform="matrix(1, 0, 0, 1, 7.105427357601002e-15, 0)"/>
  <path fill="#00bf89" opacity="1.000000" stroke="none" d="&#10;M236.083832,252.936829 &#10;&#9;C236.306351,256.745148 236.444672,260.075073 236.761963,263.387848 &#10;&#9;C237.033035,266.218079 235.947113,267.681671 233.100677,268.271667 &#10;&#9;C221.540649,270.667755 209.995544,273.082275 198.276810,274.662476 &#10;&#9;C194.387146,275.186981 193.514252,273.859039 193.769531,270.445007 &#10;&#9;C194.105087,265.957397 194.266098,261.440125 193.253784,257.014587 &#10;&#9;C192.798920,255.026031 193.563965,253.879944 195.080688,252.837814 &#10;&#9;C202.090820,248.021118 208.924225,242.986816 214.537903,236.504150 &#10;&#9;C215.455002,235.445099 216.483063,234.721146 218.005722,235.043076 &#10;&#9;C223.209412,236.143265 228.421432,237.204041 233.625992,238.300217 &#10;&#9;C235.906555,238.780518 236.307175,240.429932 236.240723,242.456833 &#10;&#9;C236.131561,245.786423 236.126328,249.119431 236.083832,252.936829 &#10;z" transform="matrix(1, 0, 0, 1, 7.105427357601002e-15, 0)"/>
  <path fill="#00bf89" opacity="1.000000" stroke="none" d="&#10;M165.754028,328.209198 &#10;&#9;C164.712494,326.189972 165.890961,325.116882 166.795975,323.933594 &#10;&#9;C172.045151,317.070282 177.262970,310.178680 181.577087,302.672089 &#10;&#9;C182.924835,300.327026 184.614746,299.872681 186.977753,300.897766 &#10;&#9;C192.956665,303.491455 198.486496,306.802429 203.591339,310.868378 &#10;&#9;C205.767609,312.601746 205.888290,314.430908 204.300751,316.437073 &#10;&#9;C197.501007,325.030029 190.983597,333.857758 183.242386,341.671234 &#10;&#9;C181.411133,343.519592 179.926941,343.263123 178.147232,341.625641 &#10;&#9;C173.733810,337.564880 169.636185,333.222748 165.754028,328.209198 &#10;z" transform="matrix(1, 0, 0, 1, 7.105427357601002e-15, 0)"/>
  <path fill="#00bf89" opacity="1.000000" stroke="none" d="&#10;M300.011169,236.024689 &#10;&#9;C301.102325,237.854752 302.721619,239.057449 302.407593,241.698044 &#10;&#9;C284.915649,250.341568 267.233337,259.167145 247.194473,263.707428 &#10;&#9;C247.527786,259.068115 250.398285,256.223511 251.532074,252.724533 &#10;&#9;C254.765991,242.744385 260.264313,236.014755 271.875397,235.313782 &#10;&#9;C276.804291,235.016220 281.624695,232.232834 286.238647,229.889908 &#10;&#9;C293.067047,226.422470 293.102539,226.478638 297.527466,232.464798 &#10;&#9;C298.316681,233.532501 299.044250,234.645798 300.011169,236.024689 &#10;z" transform="matrix(1, 0, 0, 1, 7.105427357601002e-15, 0)"/>
  <path fill="#00bf89" opacity="1.000000" stroke="none" d="&#10;M229.870361,280.779968 &#10;&#9;C223.800003,289.366119 217.863815,297.601166 212.119827,305.968140 &#10;&#9;C210.194458,308.772736 208.575729,309.445312 205.811142,306.956909 &#10;&#9;C201.077820,302.696381 195.430756,299.766113 189.845444,296.787170 &#10;&#9;C188.557953,296.100525 186.542709,295.672455 187.071365,293.813751 &#10;&#9;C188.022110,290.471222 189.616867,287.316193 190.654205,283.992859 &#10;&#9;C192.061798,279.483307 195.844910,280.195679 199.211243,279.595093 &#10;&#9;C208.542648,277.930389 217.837906,276.063507 227.149704,274.288330 &#10;&#9;C229.027054,273.930450 230.918655,272.825531 232.908615,274.298218 &#10;&#9;C233.077713,276.893219 231.083771,278.469147 229.870361,280.779968 &#10;z" transform="matrix(1, 0, 0, 1, 7.105427357601002e-15, 0)"/>
  <path fill="#00bf89" opacity="1.000000" stroke="none" d="&#10;M186.387680,347.699036 &#10;&#9;C186.336334,345.162201 187.946533,343.795837 189.262634,342.376007 &#10;&#9;C195.380188,335.776428 200.721405,328.555939 206.236816,321.473297 &#10;&#9;C209.642303,317.100098 210.323563,317.071259 213.446365,321.391510 &#10;&#9;C216.956207,326.247223 220.154312,331.294189 222.898560,336.635590 &#10;&#9;C224.319077,339.400513 224.248245,341.304474 220.871475,342.324158 &#10;&#9;C214.172729,344.346924 208.747696,348.513062 203.746277,353.172729 &#10;&#9;C201.231552,355.515564 199.209686,355.769684 196.316940,353.882233 &#10;&#9;C193.143570,351.811768 189.332870,350.764435 186.387680,347.699036 &#10;z" transform="matrix(1, 0, 0, 1, 7.105427357601002e-15, 0)"/>
  <path fill="#00bf89" opacity="1.000000" stroke="none" d="&#10;M222.298096,217.152649 &#10;&#9;C213.653778,231.702957 215.588425,229.644333 203.047028,222.566360 &#10;&#9;C198.444702,219.968964 192.597717,216.237015 193.039688,211.106812 &#10;&#9;C193.433411,206.536560 200.432632,205.834610 204.811768,204.345016 &#10;&#9;C212.125565,201.857162 219.546936,199.252991 228.358459,199.816467 &#10;&#9;C227.420654,206.177414 225.261734,211.596161 222.298096,217.152649 &#10;z" transform="matrix(1, 0, 0, 1, 7.105427357601002e-15, 0)"/>
  <path fill="#00bf89" opacity="1.000000" stroke="none" d="&#10;M197.447174,245.585022 &#10;&#9;C193.395432,249.233261 191.109146,248.227112 189.030258,243.741837 &#10;&#9;C186.221848,237.682617 182.026962,232.438812 177.299988,227.743530 &#10;&#9;C174.240005,224.704086 174.592957,222.436493 177.946671,220.182388 &#10;&#9;C178.083557,220.090393 178.199951,219.967896 178.325714,219.859390 &#10;&#9;C186.278168,213.000305 186.278259,213.000198 193.243378,220.481812 &#10;&#9;C197.267014,224.803802 202.282120,227.781708 207.381012,230.555832 &#10;&#9;C210.500397,232.252945 210.719238,233.984299 208.239304,236.213928 &#10;&#9;C204.787842,239.317001 201.241287,242.314301 197.447174,245.585022 &#10;z" transform="matrix(1, 0, 0, 1, 7.105427357601002e-15, 0)"/>
  <path fill="#00bf89" opacity="1.000000" stroke="none" d="&#10;M175.153076,256.371216 &#10;&#9;C168.320557,258.797882 161.679932,259.357178 154.248367,259.509613 &#10;&#9;C155.680603,252.153519 158.537811,246.388245 161.642395,240.768814 &#10;&#9;C163.485641,237.432480 165.782394,234.344727 167.906403,231.166031 &#10;&#9;C169.904541,228.175705 172.057251,228.326385 174.355804,230.869858 &#10;&#9;C178.949768,235.953308 183.019287,241.380493 185.995117,247.603134 &#10;&#9;C187.150360,250.018738 186.991531,251.704056 184.313950,252.751862 &#10;&#9;C181.380112,253.899979 178.463715,255.092667 175.153076,256.371216 &#10;z" transform="matrix(1, 0, 0, 1, 7.105427357601002e-15, 0)"/>
  <path fill="#00bf89" opacity="1.000000" stroke="none" d="&#10;M253.547089,337.936462 &#10;&#9;C252.771545,330.084106 256.922607,323.880890 259.822601,317.342316 &#10;&#9;C260.614105,315.557678 262.520752,316.827820 263.568298,317.925720 &#10;&#9;C270.287262,324.967834 278.455811,330.148010 286.356171,335.656616 &#10;&#9;C289.046356,337.532440 289.037384,339.152039 286.687164,341.116852 &#10;&#9;C284.647583,342.822083 282.501587,344.413788 280.578247,346.240570 &#10;&#9;C278.438629,348.272797 276.452789,348.427246 273.896515,346.879639 &#10;&#9;C267.618103,343.078522 260.909027,340.184998 253.547089,337.936462 &#10;z" transform="matrix(1, 0, 0, 1, 7.105427357601002e-15, 0)"/>
  <path fill="#00bf89" opacity="1.000000" stroke="none" d="&#10;M159.469391,264.288483 &#10;&#9;C168.170410,263.239777 176.221115,261.357025 183.896790,258.088959 &#10;&#9;C187.449554,256.576263 189.328522,257.257751 189.149017,261.417389 &#10;&#9;C189.141876,261.582855 189.150726,261.749207 189.156891,261.915009 &#10;&#9;C189.662537,275.500977 189.238586,276.018494 175.908035,277.160828 &#10;&#9;C168.978088,277.754700 162.026413,278.116364 155.108246,278.816956 &#10;&#9;C151.618607,279.170319 150.381577,277.631165 150.929489,274.545288 &#10;&#9;C152.613983,265.058167 150.986847,265.219788 159.469391,264.288483 &#10;z" transform="matrix(1, 0, 0, 1, 7.105427357601002e-15, 0)"/>
  <path fill="#00bf89" opacity="1.000000" stroke="none" d="&#10;M258.736725,224.586136 &#10;&#9;C254.956406,234.564453 254.553482,234.790466 246.656433,234.261246 &#10;&#9;C243.696030,234.062836 242.298187,232.869919 242.771881,229.921448 &#10;&#9;C244.166931,221.238190 245.787674,212.603867 248.607635,204.240051 &#10;&#9;C249.181732,202.537354 250.230225,201.728699 251.980209,202.201202 &#10;&#9;C255.181595,203.065613 258.377869,203.961548 261.534912,204.973434 &#10;&#9;C263.824036,205.707123 263.863098,207.541580 263.302704,209.454132 &#10;&#9;C261.857635,214.385910 260.363373,219.303299 258.736725,224.586136 &#10;z" transform="matrix(1, 0, 0, 1, 7.105427357601002e-15, 0)"/>
  <path fill="#00bf89" opacity="1.000000" stroke="none" d="&#10;M228.789978,214.783325 &#10;&#9;C230.661148,210.641678 231.961090,206.735168 232.927475,202.657364 &#10;&#9;C234.132217,197.573914 238.280823,199.944244 241.184204,200.180634 &#10;&#9;C244.488358,200.449677 243.613937,203.119598 243.016022,205.197723 &#10;&#9;C240.806198,212.878433 239.229141,220.694122 238.143326,228.599121 &#10;&#9;C237.613480,232.456558 236.115509,234.126190 231.894531,233.347305 &#10;&#9;C218.139923,230.809189 218.983261,231.495087 225.369278,221.297836 &#10;&#9;C226.601593,219.330078 227.567703,217.195602 228.789978,214.783325 &#10;z" transform="matrix(1, 0, 0, 1, 7.105427357601002e-15, 0)"/>
  <path fill="#00bf89" opacity="1.000000" stroke="none" d="&#10;M154.698578,306.114990 &#10;&#9;C154.174591,304.297150 153.796158,302.844910 153.320831,301.425110 &#10;&#9;C152.468552,298.879303 153.638275,297.534821 156.005081,297.178192 &#10;&#9;C162.303375,296.229034 168.617828,296.380157 174.905350,297.320892 &#10;&#9;C177.247757,297.671326 178.160049,299.037323 176.862732,301.208099 &#10;&#9;C172.683365,308.201294 167.728302,314.618011 162.143188,321.446869 &#10;&#9;C157.937378,316.829315 157.133759,311.261169 154.698578,306.114990 &#10;z" transform="matrix(1, 0, 0, 1, 7.105427357601002e-15, 0)"/>
  <path fill="#00bf89" opacity="1.000000" stroke="none" d="&#10;M275.700317,212.216324 &#10;&#9;C280.165802,215.596130 284.744537,218.302429 288.621368,223.042938 &#10;&#9;C280.289612,228.415482 271.704132,231.099258 262.679199,232.526520 &#10;&#9;C261.075348,229.681015 262.754578,227.856979 263.365326,225.912674 &#10;&#9;C264.509979,222.268814 265.848511,218.685913 266.994446,215.042450 &#10;&#9;C269.196808,208.040146 269.164398,208.029953 275.700317,212.216324 &#10;z" transform="matrix(1, 0, 0, 1, 7.105427357601002e-15, 0)"/>
  <path fill="#00bf89" opacity="1.000000" stroke="none" d="&#10;M184.494217,286.545197 &#10;&#9;C182.899948,292.683563 179.721359,294.237305 173.737320,292.586761 &#10;&#9;C168.358810,291.103271 162.552444,291.583374 156.921997,292.206787 &#10;&#9;C153.481308,292.587769 151.005615,291.785065 150.912430,287.641388 &#10;&#9;C150.821030,283.577637 153.640503,283.887756 156.349045,283.685669 &#10;&#9;C164.288803,283.093201 172.217316,282.349396 180.157516,281.763702 &#10;&#9;C181.764435,281.645172 183.456528,281.209717 185.048828,282.041718 &#10;&#9;C186.127518,283.565277 185.210953,284.878906 184.494217,286.545197 &#10;z" transform="matrix(1, 0, 0, 1, 7.105427357601002e-15, 0)"/>
  <path fill="#00bf89" opacity="1.000000" stroke="none" d="&#10;M211.273926,353.220001 &#10;&#9;C215.078842,350.784607 218.517899,348.468292 222.333908,346.742950 &#10;&#9;C225.007339,345.534271 226.870926,345.744598 227.618195,348.844757 &#10;&#9;C228.613953,352.975830 232.325424,357.802551 230.037354,361.012451 &#10;&#9;C227.612152,364.414734 222.307175,361.198975 218.308701,360.785004 &#10;&#9;C214.609863,360.402069 210.634567,360.422028 207.439758,357.848145 &#10;&#9;C207.360397,355.274597 209.419952,354.550507 211.273926,353.220001 &#10;z" transform="matrix(1, 0, 0, 1, 7.105427357601002e-15, 0)"/>
  <path fill="#00bf89" opacity="1.000000" stroke="none" d="&#10;M237.790985,342.692688 &#10;&#9;C246.039169,341.508759 245.983688,341.504944 245.437927,349.427155 &#10;&#9;C245.279419,351.728119 245.352203,354.082306 245.654373,356.367737 &#10;&#9;C245.990616,358.911102 246.099655,361.119598 242.871536,361.632965 &#10;&#9;C239.884460,362.108002 236.781113,362.828613 235.615738,358.681305 &#10;&#9;C234.540619,354.855164 233.286392,351.077881 232.270706,347.236877 &#10;&#9;C231.021133,342.511353 234.804291,343.263947 237.790985,342.692688 &#10;z" transform="matrix(1, 0, 0, 1, 7.105427357601002e-15, 0)"/>
  <path fill="#00bf89" opacity="1.000000" stroke="none" d="&#10;M250.580750,355.334473 &#10;&#9;C250.613495,352.776001 250.611313,350.624481 250.698639,348.476593 &#10;&#9;C250.934097,342.685852 251.466995,342.155701 256.759186,343.949432 &#10;&#9;C261.708252,345.626892 266.617889,347.548737 271.388580,351.502533 &#10;&#9;C265.562103,355.863464 259.282410,357.738220 253.099075,359.542267 &#10;&#9;C250.578705,360.277618 250.710770,357.525299 250.580750,355.334473 &#10;z" transform="matrix(1, 0, 0, 1, 7.105427357601002e-15, 0)"/>
  <path fill="#00bf89" opacity="1.000000" stroke="none" d="&#10;M241.742355,258.410400 &#10;&#9;C240.253128,253.148483 240.866608,248.030670 240.965149,242.931030 &#10;&#9;C241.003708,240.935608 241.710907,239.244919 243.983627,239.086121 &#10;&#9;C246.406281,238.916870 249.204926,237.944641 251.119705,239.828354 &#10;&#9;C252.649948,241.333740 251.073792,243.291626 250.223541,244.804977 &#10;&#9;C247.607101,249.461960 246.480301,255.007965 241.742355,258.410400 &#10;z" transform="matrix(1, 0, 0, 1, 7.105427357601002e-15, 0)"/>
</svg>